<?xml version="1.0" encoding="UTF-8" standalone="no"?>
<svg width="25px" height="26px" viewBox="0 0 25 26" version="1.1" xmlns="http://www.w3.org/2000/svg" xmlns:xlink="http://www.w3.org/1999/xlink">
    <!-- Generator: Sketch 3.7 (28169) - http://www.bohemiancoding.com/sketch -->
    <title>calendario</title>
    <desc>Created with Sketch.</desc>
    <defs></defs>
    <g id="HOME" stroke="none" stroke-width="1" fill="none" fill-rule="evenodd">
        <g transform="translate(-1259.000000, -1612.000000)" id="Group-36" fill="#DB4C92">
            <g transform="translate(935.000000, 1170.000000)">
                <g id="Group-26" transform="translate(70.000000, 430.000000)">
                    <path d="M269.990308,26.959847 C270.410925,26.959847 270.772762,26.8367113 271.076583,26.5889101 C271.380404,26.3418738 271.532315,25.9869981 271.532315,25.5250478 C271.532315,25.1724665 271.410939,24.8695985 271.168951,24.614914 C270.926963,24.3609943 270.60024,24.2340344 270.188784,24.2340344 C269.910154,24.2340344 269.68038,24.2730402 269.500225,24.3502868 C269.320069,24.4282983 269.177319,24.5315488 269.071974,24.6592734 C268.966629,24.7869981 268.867391,24.9521989 268.773496,25.1533461 C268.679602,25.3552581 268.594105,25.5449331 268.516241,25.7231358 C268.470439,25.8195029 268.387995,25.8952199 268.269672,25.949522 C268.150587,26.0045889 268.013943,26.0321224 267.858216,26.0321224 C267.675771,26.0321224 267.507829,25.957935 267.354392,25.8087954 C267.201718,25.6604207 267.124618,25.4623327 267.124618,25.2152964 C267.124618,24.9774379 267.196374,24.7265774 267.340651,24.4634799 C267.484928,24.2003824 267.694855,23.949522 267.971195,23.7116635 C268.247535,23.473805 268.591814,23.2826004 269.002507,23.1380497 C269.4132,22.993499 269.872749,22.9216061 270.379627,22.9216061 C270.822381,22.9216061 271.226967,22.9820268 271.592621,23.1036329 C271.958275,23.225239 272.275837,23.3996176 272.545307,23.6290631 C272.814776,23.8577438 273.017833,24.1231358 273.155239,24.425239 C273.292646,24.7273423 273.360586,25.0523901 273.360586,25.4003824 C273.360586,25.8585086 273.261348,26.2508604 273.062872,26.5774379 C272.864395,26.9047801 272.579658,27.2244742 272.209424,27.5349904 C272.565918,27.7269598 272.865922,27.9472275 273.1102,28.1942639 C273.354479,28.4413002 273.538451,28.7151052 273.662117,29.014914 C273.785783,29.3147228 273.846852,29.6382409 273.846852,29.9862333 C273.846852,30.4022945 273.763645,30.8053537 273.596467,31.1946463 C273.429289,31.5839388 273.184247,31.9304015 272.859815,32.2347992 C272.535383,32.5391969 272.150645,32.7770554 271.704837,32.9483748 C271.259792,33.1204589 270.767418,33.2061185 270.228479,33.2061185 C269.68038,33.2061185 269.18877,33.1082218 268.755176,32.9108987 C268.320818,32.7143403 267.963561,32.4680688 267.682641,32.1728489 C267.401721,31.8776291 267.189504,31.5724665 267.045227,31.2565966 C266.90095,30.9407266 266.829193,30.6799235 266.829193,30.4741874 C266.829193,30.2087954 266.914691,29.9946463 267.086449,29.8325048 C267.258207,29.6703633 267.471187,29.5885277 267.72768,29.5885277 C267.855163,29.5885277 267.978828,29.6260038 268.097151,29.7017208 C268.216236,29.7774379 268.293337,29.8676864 268.329979,29.9724665 C268.567387,30.6087954 268.822352,31.0814532 269.094112,31.3904398 C269.365871,31.6994264 269.74832,31.8539197 270.24222,31.8539197 C270.52543,31.8539197 270.798717,31.7843212 271.061316,31.6443595 C271.323915,31.5051625 271.540712,31.2978967 271.71247,31.023327 C271.884229,30.7487572 271.969726,30.4305927 271.969726,30.0688337 C271.969726,29.5334608 271.823922,29.1135755 271.531552,28.8091778 C271.239181,28.5047801 270.832305,28.3525813 270.311687,28.3525813 C270.220082,28.3525813 270.078859,28.3617591 269.887253,28.3801147 C269.695647,28.3984704 269.571981,28.4076482 269.517019,28.4076482 C269.26587,28.4076482 269.071974,28.3449331 268.934567,28.218738 C268.797161,28.0933078 268.729221,27.9181644 268.729221,27.6933078 C268.729221,27.473805 268.811665,27.2963671 268.975789,27.1609943 C269.139914,27.0256214 269.384956,26.9583174 269.709388,26.9583174 L269.990308,26.9583174 L269.990308,26.959847 Z M260.938268,31.4156788 L264.515419,31.4156788 C264.871913,31.4156788 265.143673,31.4891013 265.330698,31.6351816 C265.517724,31.7820268 265.611619,31.9808795 265.611619,32.2325048 C265.611619,32.4573614 265.537572,32.6470363 265.389478,32.8022945 C265.240621,32.9583174 265.01619,33.0355641 264.714659,33.0355641 L259.670311,33.0355641 C259.327558,33.0355641 259.060379,32.9407266 258.868773,32.7502868 C258.677167,32.5606119 258.580982,32.3372849 258.580982,32.0810707 C258.580982,31.91587 258.642815,31.6978967 258.765718,31.4256214 C258.889384,31.1533461 259.023737,30.9391969 259.170304,30.7839388 C259.777946,30.1521989 260.326046,29.6114723 260.814603,29.1602294 C261.303159,28.7097514 261.652783,28.4130019 261.862709,28.2715105 C262.237524,28.0061185 262.548979,27.7391969 262.797837,27.4715105 C263.046696,27.2038241 263.236012,26.9292543 263.366548,26.6478011 C263.496321,26.366348 263.561971,26.0910134 263.561971,25.8210325 C263.561971,25.5281071 263.492504,25.2657744 263.352807,25.0347992 C263.213111,24.8038241 263.023795,24.6240918 262.784097,24.4956023 C262.544399,24.3678776 262.282563,24.3036329 261.999353,24.3036329 C261.400871,24.3036329 260.930635,24.5667304 260.587882,25.0929254 C260.542079,25.1617591 260.465743,25.3491396 260.358107,25.6558317 C260.250472,25.9625239 260.12986,26.198088 259.994743,26.3625239 C259.859627,26.5277247 259.662677,26.6095602 259.402368,26.6095602 C259.174121,26.6095602 258.984042,26.5338432 258.833658,26.383174 C258.682511,26.2325048 258.6077,26.0267686 258.6077,25.7652008 C258.6077,25.4493308 258.678694,25.1196941 258.819917,24.7770554 C258.961141,24.433652 259.172594,24.1223709 259.453514,23.8432122 C259.734434,23.5640535 260.090928,23.3384321 260.522232,23.1671128 C260.954299,22.9957935 261.45965,22.909369 262.039811,22.909369 C262.739058,22.909369 263.33525,23.0195029 263.828387,23.2390057 C264.148239,23.3858509 264.429159,23.5869981 264.671147,23.8432122 C264.913135,24.0994264 265.101688,24.3961759 265.236041,24.7319312 C265.371157,25.0684512 265.438334,25.4172084 265.438334,25.7789675 C265.438334,26.3464627 265.297874,26.8627151 265.016953,27.3269598 C264.736033,27.7912046 264.449006,28.1552581 264.156636,28.4183556 C263.864265,28.6814532 263.374182,29.0944551 262.687149,29.6573614 C261.999353,30.2202677 261.52759,30.6577438 261.271861,30.9690249 C261.164226,31.0929254 261.052011,31.242065 260.938268,31.4156788 Z M260.876435,16.2049713 C260.454292,16.2049713 260.113066,15.8630975 260.113066,15.440153 L260.113066,12.7648184 C260.113066,12.3418738 260.454292,12 260.876435,12 C261.298579,12 261.639805,12.3418738 261.639805,12.7648184 L261.639805,15.440153 C261.639805,15.8630975 261.298579,16.2049713 260.876435,16.2049713 Z M274.271286,36.4695985 L258.156549,36.4695985 C256.706909,36.4695985 255.52674,35.2879541 255.52674,33.8355641 L255.52674,20.7938815 L276.901095,20.7938815 L276.901095,33.8355641 C276.901095,35.2879541 275.720925,36.4695985 274.271286,36.4695985 M278.428598,20.0290631 C278.428598,20.0275335 278.427835,20.0267686 278.427835,20.025239 L278.427835,17.6910134 C278.427835,15.3942639 276.563686,13.5265774 274.271286,13.5265774 C273.849142,13.5265774 273.507916,13.8684512 273.507916,14.2913958 C273.507916,14.7143403 273.849142,15.0562141 274.271286,15.0562141 C275.720925,15.0562141 276.901095,16.2386233 276.901095,17.6910134 L276.901095,19.2642447 L255.52674,19.2642447 L255.52674,17.6910134 C255.52674,16.2386233 256.706909,15.0562141 258.156549,15.0562141 C258.578692,15.0562141 258.919919,14.7143403 258.919919,14.2913958 C258.919919,13.8684512 258.578692,13.5265774 258.156549,13.5265774 C255.864149,13.5265774 254,15.3942639 254,17.6910134 L254,33.8363289 C254,36.1323136 255.864149,38 258.156549,38 L274.272049,38 C276.564449,38 278.428598,36.1323136 278.427835,33.8355641 L278.427835,20.0328872 C278.427835,20.0313576 278.428598,20.0305927 278.428598,20.0290631 Z M265.839103,16.2049713 C265.416959,16.2049713 265.075733,15.8630975 265.075733,15.440153 L265.075733,12.7648184 C265.075733,12.3418738 265.416959,12 265.839103,12 C266.261246,12 266.602473,12.3418738 266.602473,12.7648184 L266.602473,15.440153 C266.602473,15.8630975 266.261246,16.2049713 265.839103,16.2049713 Z M270.79948,16.2049713 C270.377336,16.2049713 270.03611,15.8630975 270.03611,15.440153 L270.03611,12.7648184 C270.03611,12.3418738 270.377336,12 270.79948,12 C271.221624,12 271.56285,12.3418738 271.56285,12.7648184 L271.56285,15.440153 C271.56285,15.8630975 271.221624,16.2049713 270.79948,16.2049713 Z" id="calendario"></path>
                </g>
            </g>
        </g>
    </g>
</svg>