<?xml version="1.0" encoding="utf-8"?>
<!-- Generator: Adobe Illustrator 18.0.0, SVG Export Plug-In . SVG Version: 6.00 Build 0)  -->
<svg version="1.2" baseProfile="tiny" xmlns="http://www.w3.org/2000/svg" xmlns:xlink="http://www.w3.org/1999/xlink" x="0px"
	 y="0px" viewBox="0 0 500 500" xml:space="preserve">
<g id="Layer_1" display="none">
	<image display="inline" width="358" height="359" xlink:href="4905BEED.jpg"  transform="matrix(1.3898 0 0 1.3898 1.195 0)">
	</image>
</g>
<g id="Layer_2">
	<path fill="#EE2244" d="M484,499H16c-8.2,0-15-6.7-15-15V16C1,7.7,7.7,1,16,1H484c8.2,0,15,6.7,15,15V484
		C499,492.3,492.3,499,484,499z"/>
</g>
<g id="Layer_3">
	<line fill="none" stroke="#990000" stroke-miterlimit="10" x1="24" y1="96.5" x2="476" y2="96.5"/>
	<g>
		<path fill="#FFFFFF" d="M39.6,133.1c0,2.4-0.6,4.2-1.9,5.4s-3.1,1.9-5.5,1.9h-4v-14.3h4.4c2.2,0,3.9,0.6,5.2,1.8
			S39.6,130.9,39.6,133.1z M37.8,133.2c0-1.9-0.5-3.3-1.4-4.2s-2.3-1.4-4.2-1.4h-2.4v11.4h2c2,0,3.5-0.5,4.5-1.5
			S37.8,135.1,37.8,133.2z"/>
		<path fill="#FFFFFF" d="M55.2,133.2c0,2.3-0.6,4.1-1.7,5.4s-2.8,2-4.8,2c-2.1,0-3.7-0.6-4.9-1.9s-1.7-3.1-1.7-5.4
			c0-2.3,0.6-4.1,1.7-5.4s2.8-1.9,4.9-1.9c2.1,0,3.7,0.7,4.8,2S55.2,130.9,55.2,133.2z M43.8,133.2c0,1.9,0.4,3.4,1.2,4.4
			s2,1.5,3.6,1.5c1.6,0,2.8-0.5,3.6-1.5s1.2-2.5,1.2-4.4c0-1.9-0.4-3.4-1.2-4.4s-2-1.5-3.6-1.5c-1.6,0-2.8,0.5-3.6,1.5
			S43.8,131.3,43.8,133.2z"/>
		<path fill="#FFFFFF" d="M64.7,140.4l-4.8-12.7h-0.1c0.1,1,0.1,2.2,0.1,3.6v9.1h-1.5v-14.3h2.5l4.5,11.8h0.1l4.6-11.8h2.5v14.3
			h-1.7v-9.2c0-1.1,0-2.2,0.1-3.4h-0.1L66,140.4H64.7z"/>
	</g>
	<g>
		<path fill="#FFFFFF" d="M103.3,140.4v-14.3h1.7v12.8h6.3v1.5H103.3z"/>
		<path fill="#FFFFFF" d="M124.4,126.1v9.2c0,1.6-0.5,2.9-1.5,3.8s-2.3,1.4-4.1,1.4s-3-0.5-4-1.4s-1.4-2.2-1.4-3.9v-9.2h1.7v9.3
			c0,1.2,0.3,2.1,1,2.7s1.6,1,2.9,1c1.2,0,2.1-0.3,2.8-1s1-1.6,1-2.8v-9.3H124.4z"/>
		<path fill="#FFFFFF" d="M139.4,140.4h-1.9l-7.8-12h-0.1c0.1,1.4,0.2,2.7,0.2,3.9v8.1h-1.5v-14.3h1.9l7.8,11.9h0.1
			c0-0.2,0-0.7-0.1-1.7s-0.1-1.6,0-2v-8.2h1.6V140.4z"/>
	</g>
	<g>
		<path fill="#FFFFFF" d="M176.9,140.4l-4.8-12.7H172c0.1,1,0.1,2.2,0.1,3.6v9.1h-1.5v-14.3h2.5l4.5,11.8h0.1l4.6-11.8h2.5v14.3
			h-1.7v-9.2c0-1.1,0-2.2,0.1-3.4h-0.1l-4.9,12.6H176.9z"/>
		<path fill="#FFFFFF" d="M197.6,140.4l-1.8-4.5h-5.7l-1.8,4.5h-1.7l5.6-14.3h1.4l5.6,14.3H197.6z M195.3,134.3l-1.7-4.4
			c-0.2-0.6-0.4-1.2-0.7-2.1c-0.1,0.6-0.3,1.3-0.6,2.1l-1.7,4.4H195.3z"/>
		<path fill="#FFFFFF" d="M203,134.4v5.9h-1.7v-14.3h3.9c1.8,0,3,0.3,3.9,1s1.3,1.7,1.3,3c0,1.9-1,3.2-2.9,3.8l3.9,6.4h-2l-3.5-5.9
			H203z M203,133h2.3c1.2,0,2-0.2,2.6-0.7s0.8-1.2,0.8-2.1c0-0.9-0.3-1.6-0.8-2s-1.5-0.6-2.7-0.6H203V133z"/>
	</g>
	<g>
		<path fill="#FFFFFF" d="M247.9,140.4l-4.8-12.7h-0.1c0.1,1,0.1,2.2,0.1,3.6v9.1h-1.5v-14.3h2.5l4.5,11.8h0.1l4.6-11.8h2.5v14.3
			H254v-9.2c0-1.1,0-2.2,0.1-3.4h-0.1l-4.9,12.6H247.9z"/>
		<path fill="#FFFFFF" d="M259.6,140.4v-14.3h1.7v14.3H259.6z"/>
		<path fill="#FFFFFF" d="M273.1,140.4h-8v-14.3h8v1.5h-6.3v4.6h5.9v1.5h-5.9v5.3h6.3V140.4z"/>
	</g>
	<g>
		<path fill="#FFFFFF" d="M303.8,144.1c-0.6,0-1.1-0.1-1.4-0.3v-1.4c0.5,0.1,0.9,0.2,1.4,0.2c0.6,0,1.1-0.2,1.5-0.6
			c0.3-0.4,0.5-1,0.5-1.7v-14.3h1.7v14.1c0,1.2-0.3,2.2-0.9,2.9S304.9,144.1,303.8,144.1z"/>
		<path fill="#FFFFFF" d="M322,126.1v9.2c0,1.6-0.5,2.9-1.5,3.8c-1,0.9-2.3,1.4-4.1,1.4s-3-0.5-4-1.4c-0.9-0.9-1.4-2.2-1.4-3.9v-9.2
			h1.7v9.3c0,1.2,0.3,2.1,1,2.7c0.7,0.6,1.6,1,2.9,1c1.2,0,2.1-0.3,2.8-1c0.7-0.6,1-1.6,1-2.8v-9.3H322z"/>
		<path fill="#FFFFFF" d="M333.7,140.4h-8v-14.3h8v1.5h-6.3v4.6h5.9v1.5h-5.9v5.3h6.3V140.4z"/>
	</g>
	<g>
		<path fill="#FFFFFF" d="M375.2,126.1h1.8l-5.1,14.3h-1.6l-5.1-14.3h1.8l3.3,9.2c0.4,1.1,0.7,2.1,0.9,3.1c0.2-1.1,0.5-2.1,0.9-3.2
			L375.2,126.1z"/>
		<path fill="#FFFFFF" d="M378.9,140.4v-14.3h1.7v14.3H378.9z"/>
		<path fill="#FFFFFF" d="M392.5,140.4h-8v-14.3h8v1.5h-6.3v4.6h5.9v1.5h-5.9v5.3h6.3V140.4z"/>
	</g>
	<g>
		<path fill="#FFFFFF" d="M432.5,136.6c0,1.3-0.5,2.2-1.4,2.9c-0.9,0.7-2.1,1.1-3.7,1.1c-1.7,0-3-0.2-3.9-0.7v-1.6
			c0.6,0.2,1.2,0.4,1.9,0.6c0.7,0.1,1.4,0.2,2.1,0.2c1.1,0,1.9-0.2,2.5-0.6c0.6-0.4,0.8-1,0.8-1.8c0-0.5-0.1-0.9-0.3-1.2
			c-0.2-0.3-0.5-0.6-1-0.9c-0.5-0.3-1.2-0.6-2.1-0.9c-1.3-0.5-2.3-1-2.8-1.7c-0.6-0.7-0.9-1.5-0.9-2.5c0-1.1,0.4-2,1.2-2.6
			c0.8-0.7,1.9-1,3.3-1c1.4,0,2.7,0.3,3.9,0.8l-0.5,1.4c-1.2-0.5-2.3-0.7-3.4-0.7c-0.9,0-1.6,0.2-2.1,0.6c-0.5,0.4-0.7,0.9-0.7,1.6
			c0,0.5,0.1,0.9,0.3,1.2c0.2,0.3,0.5,0.6,0.9,0.9c0.4,0.3,1.1,0.6,2,0.9c1.5,0.5,2.5,1.1,3.1,1.7
			C432.2,134.8,432.5,135.6,432.5,136.6z"/>
		<path fill="#FFFFFF" d="M444.4,140.4l-1.8-4.5h-5.7l-1.8,4.5h-1.7l5.6-14.3h1.4l5.6,14.3H444.4z M442.1,134.3l-1.7-4.4
			c-0.2-0.6-0.4-1.2-0.7-2.1c-0.1,0.6-0.3,1.3-0.6,2.1l-1.7,4.4H442.1z"/>
		<path fill="#FFFFFF" d="M448,126.1h4c1.9,0,3.3,0.3,4.1,0.8c0.8,0.6,1.3,1.5,1.3,2.7c0,0.8-0.2,1.5-0.7,2.1
			c-0.5,0.6-1.2,0.9-2.1,1.1v0.1c2.2,0.4,3.3,1.5,3.3,3.4c0,1.3-0.4,2.3-1.3,3c-0.9,0.7-2.1,1.1-3.6,1.1h-5V126.1z M449.7,132.2h2.7
			c1.2,0,2-0.2,2.5-0.6c0.5-0.4,0.8-1,0.8-1.9c0-0.8-0.3-1.4-0.9-1.7c-0.6-0.4-1.5-0.5-2.7-0.5h-2.4V132.2z M449.7,133.6v5.3h3
			c1.2,0,2-0.2,2.6-0.7c0.6-0.4,0.9-1.1,0.9-2.1c0-0.9-0.3-1.5-0.9-2s-1.5-0.6-2.7-0.6H449.7z"/>
	</g>
	<g>
		<path fill="#990000" d="M49.3,187.8h-9.4v-1.4l3.8-3.8c1.1-1.2,1.9-2,2.3-2.5s0.6-1,0.8-1.4s0.3-1,0.3-1.5c0-0.8-0.2-1.4-0.7-1.8
			s-1.1-0.7-1.9-0.7c-0.6,0-1.2,0.1-1.7,0.3s-1.1,0.6-1.8,1.1l-0.9-1.1c1.3-1.1,2.7-1.6,4.3-1.6c1.3,0,2.4,0.3,3.2,1
			s1.1,1.6,1.1,2.8c0,0.9-0.3,1.8-0.8,2.7s-1.5,2-2.9,3.4l-3.1,3.1v0.1h7.3V187.8z"/>
		<path fill="#990000" d="M53.1,187.8L59,175h-7.8v-1.5h9.5v1.3l-5.8,13H53.1z"/>
	</g>
	<g>
		<path fill="#990000" d="M120.3,187.8h-9.4v-1.4l3.8-3.8c1.1-1.2,1.9-2,2.3-2.5s0.6-1,0.8-1.4s0.3-1,0.3-1.5c0-0.8-0.2-1.4-0.7-1.8
			s-1.1-0.7-1.9-0.7c-0.6,0-1.2,0.1-1.7,0.3s-1.1,0.6-1.8,1.1l-0.9-1.1c1.3-1.1,2.7-1.6,4.3-1.6c1.3,0,2.4,0.3,3.2,1
			s1.1,1.6,1.1,2.8c0,0.9-0.3,1.8-0.8,2.7s-1.5,2-2.9,3.4l-3.1,3.1v0.1h7.3V187.8z"/>
		<path fill="#990000" d="M127,173.3c1.3,0,2.3,0.3,3.1,0.9s1.1,1.4,1.1,2.5c0,0.7-0.2,1.3-0.7,1.9s-1.1,1.1-2.1,1.6
			c1.2,0.6,2,1.1,2.5,1.7s0.7,1.3,0.7,2.1c0,1.2-0.4,2.1-1.2,2.8s-2,1.1-3.4,1.1c-1.5,0-2.7-0.3-3.5-1s-1.2-1.6-1.2-2.8
			c0-1.6,1-2.9,3-3.8c-0.9-0.5-1.5-1.1-1.9-1.6s-0.6-1.2-0.6-2c0-1,0.4-1.9,1.1-2.5S125.8,173.3,127,173.3z M124,184.2
			c0,0.8,0.3,1.4,0.8,1.8s1.3,0.7,2.3,0.7c1,0,1.7-0.2,2.3-0.7s0.8-1.1,0.8-1.9c0-0.6-0.3-1.2-0.8-1.7s-1.4-1-2.7-1.4
			c-1,0.4-1.7,0.9-2.1,1.4S124,183.5,124,184.2z M127,174.7c-0.8,0-1.5,0.2-1.9,0.6s-0.7,0.9-0.7,1.6c0,0.6,0.2,1.1,0.6,1.5
			s1.1,0.9,2.1,1.3c0.9-0.4,1.6-0.8,2-1.3s0.6-1,0.6-1.6c0-0.7-0.2-1.2-0.7-1.6S127.8,174.7,127,174.7z"/>
	</g>
	<g>
		<path fill="#990000" d="M188.8,187.8h-9.4v-1.4l3.8-3.8c1.1-1.2,1.9-2,2.3-2.5s0.6-1,0.8-1.4s0.3-1,0.3-1.5c0-0.8-0.2-1.4-0.7-1.8
			s-1.1-0.7-1.9-0.7c-0.6,0-1.2,0.1-1.7,0.3s-1.1,0.6-1.8,1.1l-0.9-1.1c1.3-1.1,2.7-1.6,4.3-1.6c1.3,0,2.4,0.3,3.2,1
			s1.1,1.6,1.1,2.8c0,0.9-0.3,1.8-0.8,2.7s-1.5,2-2.9,3.4l-3.1,3.1v0.1h7.3V187.8z"/>
		<path fill="#990000" d="M200.3,179.6c0,5.6-2.2,8.4-6.5,8.4c-0.8,0-1.4-0.1-1.8-0.2v-1.4c0.5,0.2,1.1,0.3,1.8,0.3
			c1.6,0,2.7-0.5,3.5-1.5s1.2-2.4,1.3-4.4h-0.1c-0.4,0.5-0.8,1-1.4,1.2s-1.3,0.4-2,0.4c-1.3,0-2.3-0.4-3-1.1s-1.1-1.8-1.1-3.2
			c0-1.5,0.4-2.7,1.2-3.5s1.9-1.3,3.3-1.3c1,0,1.8,0.2,2.5,0.7s1.3,1.2,1.7,2.2S200.3,178.3,200.3,179.6z M195.5,174.7
			c-0.9,0-1.7,0.3-2.2,0.9s-0.8,1.4-0.8,2.5c0,0.9,0.2,1.7,0.7,2.2s1.2,0.8,2.1,0.8c0.6,0,1.1-0.1,1.6-0.4s0.9-0.6,1.2-1
			s0.4-0.9,0.4-1.3c0-0.7-0.1-1.3-0.4-1.9s-0.6-1-1.1-1.4S196.1,174.7,195.5,174.7z"/>
	</g>
	<g>
		<path fill="#990000" d="M255.4,176.9c0,0.9-0.3,1.7-0.8,2.2s-1.2,1-2.2,1.2v0.1c1.1,0.1,2,0.5,2.5,1.1s0.8,1.4,0.8,2.3
			c0,1.4-0.5,2.4-1.4,3.1s-2.3,1.1-4,1.1c-0.8,0-1.4-0.1-2.1-0.2s-1.2-0.3-1.8-0.6v-1.5c0.6,0.3,1.3,0.5,2,0.7s1.4,0.2,2,0.2
			c2.5,0,3.7-1,3.7-2.9c0-1.7-1.4-2.6-4.1-2.6h-1.4v-1.4h1.4c1.1,0,2-0.2,2.6-0.7s1-1.2,1-2c0-0.7-0.2-1.2-0.7-1.6s-1.1-0.6-1.9-0.6
			c-0.6,0-1.2,0.1-1.8,0.3s-1.2,0.5-1.9,0.9l-0.8-1.1c0.6-0.5,1.3-0.8,2-1.1s1.6-0.4,2.4-0.4c1.4,0,2.5,0.3,3.2,1
			S255.4,175.8,255.4,176.9z"/>
		<path fill="#990000" d="M267.4,180.7c0,2.5-0.4,4.3-1.2,5.5s-2,1.8-3.6,1.8c-1.5,0-2.7-0.6-3.5-1.9s-1.2-3.1-1.2-5.5
			c0-2.5,0.4-4.3,1.2-5.5s2-1.8,3.5-1.8c1.5,0,2.7,0.6,3.5,1.9S267.4,178.3,267.4,180.7z M259.6,180.7c0,2.1,0.2,3.6,0.7,4.5
			s1.3,1.4,2.3,1.4c1.1,0,1.9-0.5,2.3-1.4s0.7-2.5,0.7-4.5s-0.2-3.6-0.7-4.5s-1.3-1.4-2.3-1.4c-1.1,0-1.8,0.5-2.3,1.4
			S259.6,178.6,259.6,180.7z"/>
	</g>
	<g>
		<path fill="#990000" d="M317.8,176.9c0,0.9-0.3,1.7-0.8,2.2s-1.2,1-2.2,1.2v0.1c1.1,0.1,2,0.5,2.5,1.1s0.8,1.4,0.8,2.3
			c0,1.4-0.5,2.4-1.4,3.1s-2.3,1.1-4,1.1c-0.8,0-1.4-0.1-2.1-0.2s-1.2-0.3-1.8-0.6v-1.5c0.6,0.3,1.3,0.5,2,0.7s1.4,0.2,2,0.2
			c2.5,0,3.7-1,3.7-2.9c0-1.7-1.4-2.6-4.1-2.6h-1.4v-1.4h1.4c1.1,0,2-0.2,2.6-0.7s1-1.2,1-2c0-0.7-0.2-1.2-0.7-1.6s-1.1-0.6-1.9-0.6
			c-0.6,0-1.2,0.1-1.8,0.3s-1.2,0.5-1.9,0.9l-0.8-1.1c0.6-0.5,1.3-0.8,2-1.1s1.6-0.4,2.4-0.4c1.4,0,2.5,0.3,3.2,1
			S317.8,175.8,317.8,176.9z"/>
		<path fill="#990000" d="M326.4,187.8h-1.6v-10.2c0-0.8,0-1.6,0.1-2.4c-0.1,0.1-0.3,0.3-0.5,0.4s-0.9,0.8-2.3,1.9l-0.9-1.1l3.8-2.9
			h1.4V187.8z"/>
	</g>
	<g>
		<path fill="#FFFFFF" d="M380.6,187.8h-1.6v-10.2c0-0.8,0-1.6,0.1-2.4c-0.1,0.1-0.3,0.3-0.5,0.4s-0.9,0.8-2.3,1.9l-0.9-1.1l3.8-2.9
			h1.4V187.8z"/>
	</g>
	<g>
		<path fill="#FFFFFF" d="M442.8,187.8h-9.4v-1.4l3.8-3.8c1.1-1.2,1.9-2,2.3-2.5s0.6-1,0.8-1.4s0.3-1,0.3-1.5c0-0.8-0.2-1.4-0.7-1.8
			s-1.1-0.7-1.9-0.7c-0.6,0-1.2,0.1-1.7,0.3s-1.1,0.6-1.8,1.1l-0.9-1.1c1.3-1.1,2.7-1.6,4.3-1.6c1.3,0,2.4,0.3,3.2,1
			s1.1,1.6,1.1,2.8c0,0.9-0.3,1.8-0.8,2.7s-1.5,2-2.9,3.4l-3.1,3.1v0.1h7.3V187.8z"/>
	</g>
	<g>
		<path fill="#FFFFFF" d="M54.4,233.1c0,0.9-0.3,1.7-0.8,2.2s-1.2,1-2.2,1.2v0.1c1.1,0.1,2,0.5,2.5,1.1s0.8,1.4,0.8,2.3
			c0,1.4-0.5,2.4-1.4,3.1s-2.3,1.1-4,1.1c-0.8,0-1.4-0.1-2.1-0.2s-1.2-0.3-1.8-0.6v-1.5c0.6,0.3,1.3,0.5,2,0.7s1.4,0.2,2,0.2
			c2.5,0,3.7-1,3.7-2.9c0-1.7-1.4-2.6-4.1-2.6h-1.4v-1.4h1.4c1.1,0,2-0.2,2.6-0.7s1-1.2,1-2c0-0.7-0.2-1.2-0.7-1.6s-1.1-0.6-1.9-0.6
			c-0.6,0-1.2,0.1-1.8,0.3s-1.2,0.5-1.9,0.9l-0.8-1.1c0.6-0.5,1.3-0.8,2-1.1s1.6-0.4,2.4-0.4c1.4,0,2.5,0.3,3.2,1
			S54.4,232,54.4,233.1z"/>
	</g>
	<g>
		<path fill="#FFFFFF" d="M126.7,240.7h-2.1v3.3H123v-3.3H116v-1.4l6.8-9.7h1.7v9.6h2.1V240.7z M123,239.2v-4.7c0-0.9,0-2,0.1-3.2
			H123c-0.3,0.6-0.6,1.1-0.9,1.6l-4.5,6.3H123z"/>
	</g>
	<g>
		<path fill="#FFFFFF" d="M189.6,235.3c1.5,0,2.7,0.4,3.5,1.1s1.3,1.8,1.3,3.1c0,1.5-0.5,2.6-1.4,3.5s-2.2,1.3-3.9,1.3
			c-1.6,0-2.8-0.3-3.7-0.8v-1.6c0.5,0.3,1,0.5,1.7,0.7s1.3,0.2,2,0.2c1.1,0,2-0.3,2.7-0.8s1-1.3,1-2.3c0-2-1.2-3-3.7-3
			c-0.6,0-1.4,0.1-2.5,0.3l-0.8-0.5l0.5-6.7h7.1v1.5h-5.7l-0.4,4.3C188.1,235.3,188.9,235.3,189.6,235.3z"/>
	</g>
	<g>
		<path fill="#FFFFFF" d="M252.4,237.9c0-2.8,0.5-4.9,1.6-6.3s2.7-2.1,4.8-2.1c0.7,0,1.3,0.1,1.7,0.2v1.4c-0.5-0.2-1.1-0.2-1.7-0.2
			c-1.5,0-2.7,0.5-3.5,1.4s-1.3,2.5-1.3,4.5h0.1c0.7-1.1,1.8-1.7,3.4-1.7c1.3,0,2.3,0.4,3,1.2s1.1,1.8,1.1,3.2
			c0,1.5-0.4,2.7-1.2,3.5s-1.9,1.3-3.3,1.3c-1.5,0-2.6-0.6-3.5-1.7S252.4,239.9,252.4,237.9z M257.2,242.8c0.9,0,1.6-0.3,2.2-0.9
			s0.8-1.4,0.8-2.5c0-0.9-0.2-1.7-0.7-2.2s-1.2-0.8-2.1-0.8c-0.6,0-1.1,0.1-1.6,0.4s-0.9,0.6-1.2,1s-0.4,0.9-0.4,1.3
			c0,0.7,0.1,1.3,0.4,1.9s0.6,1,1.1,1.4S256.6,242.8,257.2,242.8z"/>
	</g>
	<g>
		<path fill="#FFFFFF" d="M316.5,244l5.9-12.8h-7.8v-1.5h9.5v1.3l-5.8,13H316.5z"/>
	</g>
	<g>
		<path fill="#FFFFFF" d="M379.4,229.5c1.3,0,2.3,0.3,3.1,0.9s1.1,1.4,1.1,2.5c0,0.7-0.2,1.3-0.7,1.9s-1.1,1.1-2.1,1.6
			c1.2,0.6,2,1.1,2.5,1.7s0.7,1.3,0.7,2.1c0,1.2-0.4,2.1-1.2,2.8s-2,1.1-3.4,1.1c-1.5,0-2.7-0.3-3.5-1s-1.2-1.6-1.2-2.8
			c0-1.6,1-2.9,3-3.8c-0.9-0.5-1.5-1.1-1.9-1.6s-0.6-1.2-0.6-2c0-1,0.4-1.9,1.1-2.5S378.1,229.5,379.4,229.5z M376.3,240.4
			c0,0.8,0.3,1.4,0.8,1.8s1.3,0.7,2.3,0.7c1,0,1.7-0.2,2.3-0.7s0.8-1.1,0.8-1.9c0-0.6-0.3-1.2-0.8-1.7s-1.4-1-2.7-1.4
			c-1,0.4-1.7,0.9-2.1,1.4S376.3,239.7,376.3,240.4z M379.3,230.8c-0.8,0-1.5,0.2-1.9,0.6s-0.7,0.9-0.7,1.6c0,0.6,0.2,1.1,0.6,1.5
			s1.1,0.9,2.1,1.3c0.9-0.4,1.6-0.8,2-1.3s0.6-1,0.6-1.6c0-0.7-0.2-1.2-0.7-1.6S380.2,230.8,379.3,230.8z"/>
	</g>
	<g>
		<path fill="#FFFFFF" d="M442.8,235.8c0,5.6-2.2,8.4-6.5,8.4c-0.8,0-1.4-0.1-1.8-0.2v-1.4c0.5,0.2,1.1,0.3,1.8,0.3
			c1.6,0,2.7-0.5,3.5-1.5s1.2-2.4,1.3-4.4H441c-0.4,0.5-0.8,1-1.4,1.2s-1.3,0.4-2,0.4c-1.3,0-2.3-0.4-3-1.1s-1.1-1.8-1.1-3.2
			c0-1.5,0.4-2.7,1.2-3.5s1.9-1.3,3.3-1.3c1,0,1.8,0.2,2.5,0.7s1.3,1.2,1.7,2.2S442.8,234.5,442.8,235.8z M438,230.9
			c-0.9,0-1.7,0.3-2.2,0.9s-0.8,1.4-0.8,2.5c0,0.9,0.2,1.7,0.7,2.2s1.2,0.8,2.1,0.8c0.6,0,1.1-0.1,1.6-0.4s0.9-0.6,1.2-1
			s0.4-0.9,0.4-1.3c0-0.7-0.1-1.3-0.4-1.9s-0.6-1-1.1-1.4S438.6,230.9,438,230.9z"/>
	</g>
	<g>
		<path fill="#FFFFFF" d="M45.9,300.1h-1.6V290c0-0.8,0-1.6,0.1-2.4c-0.1,0.1-0.3,0.3-0.5,0.4c-0.2,0.1-0.9,0.8-2.3,1.9l-0.9-1.1
			l3.8-2.9h1.4V300.1z"/>
		<path fill="#FFFFFF" d="M60.8,293c0,2.5-0.4,4.3-1.2,5.5c-0.8,1.2-2,1.8-3.6,1.8c-1.5,0-2.7-0.6-3.5-1.9c-0.8-1.2-1.2-3.1-1.2-5.5
			c0-2.5,0.4-4.3,1.2-5.5c0.8-1.2,2-1.8,3.5-1.8c1.5,0,2.7,0.6,3.5,1.9C60.4,288.8,60.8,290.6,60.8,293z M53,293
			c0,2.1,0.2,3.6,0.7,4.5s1.3,1.4,2.3,1.4c1.1,0,1.9-0.5,2.3-1.4c0.5-1,0.7-2.5,0.7-4.5s-0.2-3.6-0.7-4.5c-0.5-1-1.3-1.4-2.3-1.4
			c-1.1,0-1.8,0.5-2.3,1.4C53.2,289.4,53,290.9,53,293z"/>
	</g>
	<g>
		<path fill="#FFFFFF" d="M116.9,300.1h-1.6V290c0-0.8,0-1.6,0.1-2.4c-0.1,0.1-0.3,0.3-0.5,0.4c-0.2,0.1-0.9,0.8-2.3,1.9l-0.9-1.1
			l3.8-2.9h1.4V300.1z"/>
		<path fill="#FFFFFF" d="M128.3,300.1h-1.6V290c0-0.8,0-1.6,0.1-2.4c-0.1,0.1-0.3,0.3-0.5,0.4c-0.2,0.1-0.9,0.8-2.3,1.9l-0.9-1.1
			l3.8-2.9h1.4V300.1z"/>
	</g>
	<g>
		<path fill="#FFFFFF" d="M185.4,300.1h-1.6V290c0-0.8,0-1.6,0.1-2.4c-0.1,0.1-0.3,0.3-0.5,0.4c-0.2,0.1-0.9,0.8-2.3,1.9l-0.9-1.1
			l3.8-2.9h1.4V300.1z"/>
		<path fill="#FFFFFF" d="M200.3,300.1h-9.4v-1.4l3.8-3.8c1.1-1.2,1.9-2,2.3-2.5c0.4-0.5,0.6-1,0.8-1.4s0.3-1,0.3-1.5
			c0-0.8-0.2-1.4-0.7-1.8c-0.5-0.4-1.1-0.7-1.9-0.7c-0.6,0-1.2,0.1-1.7,0.3s-1.1,0.5-1.8,1.1l-0.9-1.1c1.3-1.1,2.7-1.6,4.3-1.6
			c1.3,0,2.4,0.3,3.2,1c0.8,0.7,1.1,1.6,1.1,2.8c0,0.9-0.3,1.8-0.8,2.7c-0.5,0.9-1.5,2-2.9,3.4l-3.1,3.1v0.1h7.3V300.1z"/>
	</g>
	<g>
		<path fill="#FFFFFF" d="M252.5,300.1h-1.6V290c0-0.8,0-1.6,0.1-2.4c-0.1,0.1-0.3,0.3-0.5,0.4c-0.2,0.1-0.9,0.8-2.3,1.9l-0.9-1.1
			l3.8-2.9h1.4V300.1z"/>
		<path fill="#FFFFFF" d="M266.8,289.2c0,0.9-0.3,1.7-0.8,2.2c-0.5,0.6-1.2,1-2.2,1.2v0.1c1.1,0.1,2,0.5,2.5,1.1s0.8,1.4,0.8,2.3
			c0,1.4-0.5,2.4-1.4,3.1s-2.3,1.1-4,1.1c-0.8,0-1.4-0.1-2.1-0.2c-0.6-0.1-1.2-0.3-1.8-0.6V298c0.6,0.3,1.3,0.5,2,0.7
			c0.7,0.2,1.4,0.2,2,0.2c2.5,0,3.7-1,3.7-2.9c0-1.7-1.4-2.6-4.1-2.6h-1.4v-1.4h1.4c1.1,0,2-0.2,2.6-0.7c0.7-0.5,1-1.2,1-2
			c0-0.7-0.2-1.2-0.7-1.6c-0.5-0.4-1.1-0.6-1.9-0.6c-0.6,0-1.2,0.1-1.8,0.3c-0.6,0.2-1.2,0.5-1.9,0.9l-0.8-1.1
			c0.6-0.5,1.3-0.8,2-1.1s1.6-0.4,2.4-0.4c1.4,0,2.5,0.3,3.2,1S266.8,288.1,266.8,289.2z"/>
	</g>
	<g>
		<path fill="#FFFFFF" d="M314.9,300.1h-1.6V290c0-0.8,0-1.6,0.1-2.4c-0.1,0.1-0.3,0.3-0.5,0.4c-0.2,0.1-0.9,0.8-2.3,1.9l-0.9-1.1
			l3.8-2.9h1.4V300.1z"/>
		<path fill="#FFFFFF" d="M330.4,296.9h-2.1v3.3h-1.6v-3.3h-6.9v-1.4l6.8-9.7h1.7v9.6h2.1V296.9z M326.8,295.4v-4.7
			c0-0.9,0-2,0.1-3.2h-0.1c-0.3,0.6-0.6,1.1-0.9,1.6l-4.5,6.3H326.8z"/>
	</g>
	<g>
		<path fill="#FFFFFF" d="M374.9,300.1h-1.6V290c0-0.8,0-1.6,0.1-2.4c-0.1,0.1-0.3,0.3-0.5,0.4c-0.2,0.1-0.9,0.8-2.3,1.9l-0.9-1.1
			l3.8-2.9h1.4V300.1z"/>
		<path fill="#FFFFFF" d="M384.8,291.4c1.5,0,2.7,0.4,3.5,1.1c0.9,0.7,1.3,1.8,1.3,3.1c0,1.5-0.5,2.6-1.4,3.5s-2.2,1.3-3.9,1.3
			c-1.6,0-2.8-0.3-3.7-0.8V298c0.5,0.3,1,0.5,1.7,0.7s1.3,0.2,2,0.2c1.1,0,2-0.3,2.7-0.8c0.6-0.5,1-1.3,1-2.3c0-2-1.2-3-3.7-3
			c-0.6,0-1.4,0.1-2.5,0.3l-0.8-0.5l0.5-6.7h7.1v1.5h-5.7l-0.4,4.3C383.3,291.5,384.1,291.4,384.8,291.4z"/>
	</g>
	<g>
		<path fill="#FFFFFF" d="M433.7,300.1h-1.6V290c0-0.8,0-1.6,0.1-2.4c-0.1,0.1-0.3,0.3-0.5,0.4c-0.2,0.1-0.9,0.8-2.3,1.9l-0.9-1.1
			l3.8-2.9h1.4V300.1z"/>
		<path fill="#FFFFFF" d="M439.3,294c0-2.8,0.5-4.9,1.6-6.3c1.1-1.4,2.7-2.1,4.8-2.1c0.7,0,1.3,0.1,1.7,0.2v1.4
			c-0.5-0.2-1.1-0.2-1.7-0.2c-1.5,0-2.7,0.5-3.5,1.4c-0.8,1-1.3,2.5-1.3,4.5h0.1c0.7-1.1,1.8-1.7,3.4-1.7c1.3,0,2.3,0.4,3,1.2
			c0.7,0.8,1.1,1.8,1.1,3.2c0,1.5-0.4,2.7-1.2,3.5s-1.9,1.3-3.3,1.3c-1.5,0-2.6-0.6-3.5-1.7C439.7,297.6,439.3,296,439.3,294z
			 M444.1,299c0.9,0,1.6-0.3,2.2-0.9c0.5-0.6,0.8-1.4,0.8-2.5c0-0.9-0.2-1.7-0.7-2.2c-0.5-0.5-1.2-0.8-2.1-0.8
			c-0.6,0-1.1,0.1-1.6,0.4c-0.5,0.2-0.9,0.6-1.2,1c-0.3,0.4-0.4,0.9-0.4,1.3c0,0.7,0.1,1.3,0.4,1.9c0.3,0.6,0.6,1,1.1,1.4
			C442.9,298.8,443.5,299,444.1,299z"/>
	</g>
	<g>
		<path fill="#FFFFFF" d="M45.9,356.3h-1.6v-10.2c0-0.8,0-1.6,0.1-2.4c-0.1,0.1-0.3,0.3-0.5,0.4c-0.2,0.2-0.9,0.8-2.3,1.9l-0.9-1.1
			l3.8-2.9h1.4V356.3z"/>
		<path fill="#FFFFFF" d="M53.1,356.3l5.9-12.8h-7.8V342h9.5v1.3l-5.8,13H53.1z"/>
	</g>
	<g>
		<path fill="#FFFFFF" d="M116.9,356.3h-1.6v-10.2c0-0.8,0-1.6,0.1-2.4c-0.1,0.1-0.3,0.3-0.5,0.4c-0.2,0.2-0.9,0.8-2.3,1.9l-0.9-1.1
			l3.8-2.9h1.4V356.3z"/>
		<path fill="#FFFFFF" d="M127,341.8c1.3,0,2.3,0.3,3.1,0.9s1.1,1.4,1.1,2.5c0,0.7-0.2,1.3-0.7,1.9c-0.4,0.6-1.1,1.1-2.1,1.6
			c1.2,0.6,2,1.1,2.5,1.7c0.5,0.6,0.7,1.3,0.7,2.1c0,1.2-0.4,2.1-1.2,2.8c-0.8,0.7-2,1.1-3.4,1.1c-1.5,0-2.7-0.3-3.5-1
			c-0.8-0.7-1.2-1.6-1.2-2.8c0-1.6,1-2.9,3-3.8c-0.9-0.5-1.5-1.1-1.9-1.6c-0.4-0.6-0.6-1.2-0.6-2c0-1,0.4-1.9,1.1-2.5
			S125.8,341.8,127,341.8z M124,352.7c0,0.8,0.3,1.4,0.8,1.8c0.5,0.4,1.3,0.7,2.3,0.7c1,0,1.7-0.2,2.3-0.7c0.5-0.5,0.8-1.1,0.8-1.9
			c0-0.6-0.3-1.2-0.8-1.7c-0.5-0.5-1.4-1-2.7-1.4c-1,0.4-1.7,0.9-2.1,1.4C124.2,351.4,124,352,124,352.7z M127,343.1
			c-0.8,0-1.5,0.2-1.9,0.6s-0.7,0.9-0.7,1.6c0,0.6,0.2,1.1,0.6,1.5s1.1,0.9,2.1,1.3c0.9-0.4,1.6-0.8,2-1.3s0.6-1,0.6-1.6
			c0-0.7-0.2-1.2-0.7-1.6C128.5,343.3,127.8,343.1,127,343.1z"/>
	</g>
	<g>
		<path fill="#FFFFFF" d="M185.4,356.3h-1.6v-10.2c0-0.8,0-1.6,0.1-2.4c-0.1,0.1-0.3,0.3-0.5,0.4c-0.2,0.2-0.9,0.8-2.3,1.9l-0.9-1.1
			l3.8-2.9h1.4V356.3z"/>
		<path fill="#FFFFFF" d="M200.3,348.1c0,5.6-2.2,8.4-6.5,8.4c-0.8,0-1.4-0.1-1.8-0.2v-1.4c0.5,0.2,1.1,0.3,1.8,0.3
			c1.6,0,2.7-0.5,3.5-1.5s1.2-2.4,1.3-4.4h-0.1c-0.4,0.5-0.8,1-1.4,1.2s-1.3,0.4-2,0.4c-1.3,0-2.3-0.4-3-1.1
			c-0.7-0.8-1.1-1.8-1.1-3.2c0-1.5,0.4-2.7,1.2-3.5s1.9-1.3,3.3-1.3c1,0,1.8,0.2,2.5,0.7s1.3,1.2,1.7,2.2
			C200.1,345.7,200.3,346.8,200.3,348.1z M195.5,343.2c-0.9,0-1.7,0.3-2.2,0.9c-0.5,0.6-0.8,1.4-0.8,2.5c0,0.9,0.2,1.7,0.7,2.2
			s1.2,0.8,2.1,0.8c0.6,0,1.1-0.1,1.6-0.4c0.5-0.2,0.9-0.6,1.2-1c0.3-0.4,0.4-0.9,0.4-1.3c0-0.7-0.1-1.3-0.4-1.9
			c-0.3-0.6-0.6-1-1.1-1.4S196.1,343.2,195.5,343.2z"/>
	</g>
	<g>
		<path fill="#FFFFFF" d="M255.9,356.3h-9.4v-1.4l3.8-3.8c1.1-1.2,1.9-2,2.3-2.5c0.4-0.5,0.6-1,0.8-1.4s0.3-1,0.3-1.5
			c0-0.8-0.2-1.4-0.7-1.8c-0.5-0.4-1.1-0.7-1.9-0.7c-0.6,0-1.2,0.1-1.7,0.3s-1.1,0.6-1.8,1.1l-0.9-1.1c1.3-1.1,2.7-1.6,4.3-1.6
			c1.3,0,2.4,0.3,3.2,1c0.8,0.7,1.1,1.6,1.1,2.8c0,0.9-0.3,1.8-0.8,2.7c-0.5,0.9-1.5,2-2.9,3.4l-3.1,3.1v0.1h7.3V356.3z"/>
		<path fill="#FFFFFF" d="M267.4,349.1c0,2.5-0.4,4.3-1.2,5.5c-0.8,1.2-2,1.8-3.6,1.8c-1.5,0-2.7-0.6-3.5-1.9
			c-0.8-1.2-1.2-3.1-1.2-5.5c0-2.5,0.4-4.3,1.2-5.5c0.8-1.2,2-1.8,3.5-1.8c1.5,0,2.7,0.6,3.5,1.9C267,344.9,267.4,346.8,267.4,349.1
			z M259.6,349.1c0,2.1,0.2,3.6,0.7,4.5s1.3,1.4,2.3,1.4c1.1,0,1.9-0.5,2.3-1.4c0.5-1,0.7-2.5,0.7-4.5s-0.2-3.6-0.7-4.5
			c-0.5-1-1.3-1.4-2.3-1.4c-1.1,0-1.8,0.5-2.3,1.4C259.8,345.6,259.6,347.1,259.6,349.1z"/>
	</g>
	<g>
		<path fill="#FFFFFF" d="M318.3,356.3h-9.4v-1.4l3.8-3.8c1.1-1.2,1.9-2,2.3-2.5c0.4-0.5,0.6-1,0.8-1.4s0.3-1,0.3-1.5
			c0-0.8-0.2-1.4-0.7-1.8c-0.5-0.4-1.1-0.7-1.9-0.7c-0.6,0-1.2,0.1-1.7,0.3s-1.1,0.6-1.8,1.1l-0.9-1.1c1.3-1.1,2.7-1.6,4.3-1.6
			c1.3,0,2.4,0.3,3.2,1c0.8,0.7,1.1,1.6,1.1,2.8c0,0.9-0.3,1.8-0.8,2.7c-0.5,0.9-1.5,2-2.9,3.4l-3.1,3.1v0.1h7.3V356.3z"/>
		<path fill="#FFFFFF" d="M326.4,356.3h-1.6v-10.2c0-0.8,0-1.6,0.1-2.4c-0.1,0.1-0.3,0.3-0.5,0.4c-0.2,0.2-0.9,0.8-2.3,1.9l-0.9-1.1
			l3.8-2.9h1.4V356.3z"/>
	</g>
	<g>
		<path fill="#FFFFFF" d="M378.3,356.3h-9.4v-1.4l3.8-3.8c1.1-1.2,1.9-2,2.3-2.5c0.4-0.5,0.6-1,0.8-1.4s0.3-1,0.3-1.5
			c0-0.8-0.2-1.4-0.7-1.8c-0.5-0.4-1.1-0.7-1.9-0.7c-0.6,0-1.2,0.1-1.7,0.3s-1.1,0.6-1.8,1.1l-0.9-1.1c1.3-1.1,2.7-1.6,4.3-1.6
			c1.3,0,2.4,0.3,3.2,1c0.8,0.7,1.1,1.6,1.1,2.8c0,0.9-0.3,1.8-0.8,2.7c-0.5,0.9-1.5,2-2.9,3.4l-3.1,3.1v0.1h7.3V356.3z"/>
		<path fill="#FFFFFF" d="M389.7,356.3h-9.4v-1.4l3.8-3.8c1.1-1.2,1.9-2,2.3-2.5c0.4-0.5,0.6-1,0.8-1.4s0.3-1,0.3-1.5
			c0-0.8-0.2-1.4-0.7-1.8c-0.5-0.4-1.1-0.7-1.9-0.7c-0.6,0-1.2,0.1-1.7,0.3s-1.1,0.6-1.8,1.1l-0.9-1.1c1.3-1.1,2.7-1.6,4.3-1.6
			c1.3,0,2.4,0.3,3.2,1c0.8,0.7,1.1,1.6,1.1,2.8c0,0.9-0.3,1.8-0.8,2.7c-0.5,0.9-1.5,2-2.9,3.4l-3.1,3.1v0.1h7.3V356.3z"/>
	</g>
	<g>
		<path fill="#FFFFFF" d="M437.1,356.3h-9.4v-1.4l3.8-3.8c1.1-1.2,1.9-2,2.3-2.5c0.4-0.5,0.6-1,0.8-1.4s0.3-1,0.3-1.5
			c0-0.8-0.2-1.4-0.7-1.8c-0.5-0.4-1.1-0.7-1.9-0.7c-0.6,0-1.2,0.1-1.7,0.3s-1.1,0.6-1.8,1.1l-0.9-1.1c1.3-1.1,2.7-1.6,4.3-1.6
			c1.3,0,2.4,0.3,3.2,1c0.8,0.7,1.1,1.6,1.1,2.8c0,0.9-0.3,1.8-0.8,2.7c-0.5,0.9-1.5,2-2.9,3.4l-3.1,3.1v0.1h7.3V356.3z"/>
		<path fill="#FFFFFF" d="M448,345.4c0,0.9-0.3,1.7-0.8,2.2c-0.5,0.6-1.2,1-2.2,1.2v0.1c1.1,0.1,2,0.5,2.5,1.1s0.8,1.4,0.8,2.3
			c0,1.4-0.5,2.4-1.4,3.1s-2.3,1.1-4,1.1c-0.8,0-1.4-0.1-2.1-0.2c-0.6-0.1-1.2-0.3-1.8-0.6v-1.5c0.6,0.3,1.3,0.5,2,0.7
			c0.7,0.2,1.4,0.2,2,0.2c2.5,0,3.7-1,3.7-2.9c0-1.7-1.4-2.6-4.1-2.6h-1.4v-1.4h1.4c1.1,0,2-0.2,2.6-0.7c0.7-0.5,1-1.2,1-2
			c0-0.7-0.2-1.2-0.7-1.6c-0.5-0.4-1.1-0.6-1.9-0.6c-0.6,0-1.2,0.1-1.8,0.3c-0.6,0.2-1.2,0.5-1.9,0.9l-0.8-1.1
			c0.6-0.5,1.3-0.8,2-1.1s1.6-0.4,2.4-0.4c1.4,0,2.5,0.3,3.2,1S448,344.3,448,345.4z"/>
	</g>
	<g>
		<path fill="#FFFFFF" d="M49.3,412.5h-9.4v-1.4l3.8-3.8c1.1-1.2,1.9-2,2.3-2.5c0.4-0.5,0.6-1,0.8-1.4s0.3-1,0.3-1.5
			c0-0.8-0.2-1.4-0.7-1.8c-0.5-0.4-1.1-0.7-1.9-0.7c-0.6,0-1.2,0.1-1.7,0.3s-1.1,0.5-1.8,1.1l-0.9-1.1c1.3-1.1,2.7-1.6,4.3-1.6
			c1.3,0,2.4,0.3,3.2,1c0.8,0.7,1.1,1.6,1.1,2.8c0,0.9-0.3,1.8-0.8,2.7c-0.5,0.9-1.5,2-2.9,3.4l-3.1,3.1v0.1h7.3V412.5z"/>
		<path fill="#FFFFFF" d="M61.4,409.2h-2.1v3.3h-1.6v-3.3h-6.9v-1.4l6.8-9.7h1.7v9.6h2.1V409.2z M57.7,407.7V403c0-0.9,0-2,0.1-3.2
			h-0.1c-0.3,0.6-0.6,1.1-0.9,1.6l-4.5,6.3H57.7z"/>
	</g>
	<g>
		<path fill="#FFFFFF" d="M120.3,412.5h-9.4v-1.4l3.8-3.8c1.1-1.2,1.9-2,2.3-2.5c0.4-0.5,0.6-1,0.8-1.4s0.3-1,0.3-1.5
			c0-0.8-0.2-1.4-0.7-1.8c-0.5-0.4-1.1-0.7-1.9-0.7c-0.6,0-1.2,0.1-1.7,0.3s-1.1,0.5-1.8,1.1l-0.9-1.1c1.3-1.1,2.7-1.6,4.3-1.6
			c1.3,0,2.4,0.3,3.2,1c0.8,0.7,1.1,1.6,1.1,2.8c0,0.9-0.3,1.8-0.8,2.7c-0.5,0.9-1.5,2-2.9,3.4l-3.1,3.1v0.1h7.3V412.5z"/>
		<path fill="#FFFFFF" d="M126.8,403.7c1.5,0,2.7,0.4,3.5,1.1c0.9,0.7,1.3,1.8,1.3,3.1c0,1.5-0.5,2.6-1.4,3.5s-2.2,1.3-3.9,1.3
			c-1.6,0-2.8-0.3-3.7-0.8v-1.6c0.5,0.3,1,0.5,1.7,0.7s1.3,0.2,2,0.2c1.1,0,2-0.3,2.7-0.8c0.6-0.5,1-1.3,1-2.3c0-2-1.2-3-3.7-3
			c-0.6,0-1.4,0.1-2.5,0.3l-0.8-0.5l0.5-6.7h7.1v1.5h-5.7l-0.4,4.3C125.3,403.8,126,403.7,126.8,403.7z"/>
	</g>
	<g>
		<path fill="#FFFFFF" d="M188.8,412.5h-9.4v-1.4l3.8-3.8c1.1-1.2,1.9-2,2.3-2.5c0.4-0.5,0.6-1,0.8-1.4s0.3-1,0.3-1.5
			c0-0.8-0.2-1.4-0.7-1.8c-0.5-0.4-1.1-0.7-1.9-0.7c-0.6,0-1.2,0.1-1.7,0.3s-1.1,0.5-1.8,1.1l-0.9-1.1c1.3-1.1,2.7-1.6,4.3-1.6
			c1.3,0,2.4,0.3,3.2,1c0.8,0.7,1.1,1.6,1.1,2.8c0,0.9-0.3,1.8-0.8,2.7c-0.5,0.9-1.5,2-2.9,3.4l-3.1,3.1v0.1h7.3V412.5z"/>
		<path fill="#FFFFFF" d="M191,406.4c0-2.8,0.5-4.9,1.6-6.3c1.1-1.4,2.7-2.1,4.8-2.1c0.7,0,1.3,0.1,1.7,0.2v1.4
			c-0.5-0.2-1.1-0.2-1.7-0.2c-1.5,0-2.7,0.5-3.5,1.4c-0.8,1-1.3,2.5-1.3,4.5h0.1c0.7-1.1,1.8-1.7,3.4-1.7c1.3,0,2.3,0.4,3,1.2
			c0.7,0.8,1.1,1.8,1.1,3.2c0,1.5-0.4,2.7-1.2,3.5s-1.9,1.3-3.3,1.3c-1.5,0-2.6-0.6-3.5-1.7C191.5,409.9,191,408.3,191,406.4z
			 M195.8,411.3c0.9,0,1.6-0.3,2.2-0.9c0.5-0.6,0.8-1.4,0.8-2.5c0-0.9-0.2-1.7-0.7-2.2c-0.5-0.5-1.2-0.8-2.1-0.8
			c-0.6,0-1.1,0.1-1.6,0.4c-0.5,0.2-0.9,0.6-1.2,1c-0.3,0.4-0.4,0.9-0.4,1.3c0,0.7,0.1,1.3,0.4,1.9c0.3,0.6,0.6,1,1.1,1.4
			C194.7,411.1,195.2,411.3,195.8,411.3z"/>
	</g>
	<g>
		<path fill="#FFFFFF" d="M255.9,412.5h-9.4v-1.4l3.8-3.8c1.1-1.2,1.9-2,2.3-2.5c0.4-0.5,0.6-1,0.8-1.4s0.3-1,0.3-1.5
			c0-0.8-0.2-1.4-0.7-1.8c-0.5-0.4-1.1-0.7-1.9-0.7c-0.6,0-1.2,0.1-1.7,0.3s-1.1,0.5-1.8,1.1l-0.9-1.1c1.3-1.1,2.7-1.6,4.3-1.6
			c1.3,0,2.4,0.3,3.2,1c0.8,0.7,1.1,1.6,1.1,2.8c0,0.9-0.3,1.8-0.8,2.7c-0.5,0.9-1.5,2-2.9,3.4l-3.1,3.1v0.1h7.3V412.5z"/>
		<path fill="#FFFFFF" d="M259.7,412.5l5.9-12.8h-7.8v-1.5h9.5v1.3l-5.8,13H259.7z"/>
	</g>
	<g>
		<path fill="#FFFFFF" d="M318.3,412.5h-9.4v-1.4l3.8-3.8c1.1-1.2,1.9-2,2.3-2.5c0.4-0.5,0.6-1,0.8-1.4s0.3-1,0.3-1.5
			c0-0.8-0.2-1.4-0.7-1.8c-0.5-0.4-1.1-0.7-1.9-0.7c-0.6,0-1.2,0.1-1.7,0.3s-1.1,0.5-1.8,1.1l-0.9-1.1c1.3-1.1,2.7-1.6,4.3-1.6
			c1.3,0,2.4,0.3,3.2,1c0.8,0.7,1.1,1.6,1.1,2.8c0,0.9-0.3,1.8-0.8,2.7c-0.5,0.9-1.5,2-2.9,3.4l-3.1,3.1v0.1h7.3V412.5z"/>
		<path fill="#FFFFFF" d="M325.1,398c1.3,0,2.3,0.3,3.1,0.9s1.1,1.4,1.1,2.5c0,0.7-0.2,1.3-0.7,1.9c-0.4,0.6-1.1,1.1-2.1,1.6
			c1.2,0.6,2,1.1,2.5,1.7c0.5,0.6,0.7,1.3,0.7,2.1c0,1.2-0.4,2.1-1.2,2.8c-0.8,0.7-2,1.1-3.4,1.1c-1.5,0-2.7-0.3-3.5-1
			c-0.8-0.7-1.2-1.6-1.2-2.8c0-1.6,1-2.9,3-3.8c-0.9-0.5-1.5-1.1-1.9-1.6c-0.4-0.6-0.6-1.2-0.6-2c0-1,0.4-1.9,1.1-2.5
			S323.8,398,325.1,398z M322,408.9c0,0.8,0.3,1.4,0.8,1.8c0.5,0.4,1.3,0.7,2.3,0.7c1,0,1.7-0.2,2.3-0.7c0.5-0.5,0.8-1.1,0.8-1.9
			c0-0.6-0.3-1.2-0.8-1.7c-0.5-0.5-1.4-1-2.7-1.4c-1,0.4-1.7,0.9-2.1,1.4C322.2,407.5,322,408.2,322,408.9z M325.1,399.3
			c-0.8,0-1.5,0.2-1.9,0.6s-0.7,0.9-0.7,1.6c0,0.6,0.2,1.1,0.6,1.5s1.1,0.9,2.1,1.3c0.9-0.4,1.6-0.8,2-1.3s0.6-1,0.6-1.6
			c0-0.7-0.2-1.2-0.7-1.6C326.6,399.5,325.9,399.3,325.1,399.3z"/>
	</g>
	<g>
		<path fill="#FFFFFF" d="M378.3,412.5h-9.4v-1.4l3.8-3.8c1.1-1.2,1.9-2,2.3-2.5c0.4-0.5,0.6-1,0.8-1.4s0.3-1,0.3-1.5
			c0-0.8-0.2-1.4-0.7-1.8c-0.5-0.4-1.1-0.7-1.9-0.7c-0.6,0-1.2,0.1-1.7,0.3s-1.1,0.5-1.8,1.1l-0.9-1.1c1.3-1.1,2.7-1.6,4.3-1.6
			c1.3,0,2.4,0.3,3.2,1c0.8,0.7,1.1,1.6,1.1,2.8c0,0.9-0.3,1.8-0.8,2.7c-0.5,0.9-1.5,2-2.9,3.4l-3.1,3.1v0.1h7.3V412.5z"/>
		<path fill="#FFFFFF" d="M389.7,404.3c0,5.6-2.2,8.4-6.5,8.4c-0.8,0-1.4-0.1-1.8-0.2v-1.4c0.5,0.2,1.1,0.3,1.8,0.3
			c1.6,0,2.7-0.5,3.5-1.5s1.2-2.5,1.3-4.4H388c-0.4,0.5-0.8,1-1.4,1.2s-1.3,0.4-2,0.4c-1.3,0-2.3-0.4-3-1.1
			c-0.7-0.8-1.1-1.8-1.1-3.2c0-1.5,0.4-2.7,1.2-3.5s1.9-1.3,3.3-1.3c1,0,1.8,0.2,2.5,0.7s1.3,1.2,1.7,2.2
			C389.5,401.9,389.7,403,389.7,404.3z M384.9,399.4c-0.9,0-1.7,0.3-2.2,0.9c-0.5,0.6-0.8,1.4-0.8,2.5c0,0.9,0.2,1.7,0.7,2.2
			s1.2,0.8,2.1,0.8c0.6,0,1.1-0.1,1.6-0.4c0.5-0.2,0.9-0.6,1.2-1c0.3-0.4,0.4-0.9,0.4-1.3c0-0.7-0.1-1.3-0.4-1.9
			c-0.3-0.6-0.6-1-1.1-1.4S385.6,399.4,384.9,399.4z"/>
	</g>
	<g>
		<path fill="#FFFFFF" d="M436.5,401.5c0,0.9-0.3,1.7-0.8,2.2c-0.5,0.6-1.2,1-2.2,1.2v0.1c1.1,0.1,2,0.5,2.5,1.1s0.8,1.4,0.8,2.3
			c0,1.4-0.5,2.4-1.4,3.1s-2.3,1.1-4,1.1c-0.8,0-1.4-0.1-2.1-0.2c-0.6-0.1-1.2-0.3-1.8-0.6v-1.5c0.6,0.3,1.3,0.5,2,0.7
			c0.7,0.2,1.4,0.2,2,0.2c2.5,0,3.7-1,3.7-2.9c0-1.7-1.4-2.6-4.1-2.6h-1.4v-1.4h1.4c1.1,0,2-0.2,2.6-0.7c0.7-0.5,1-1.2,1-2
			c0-0.7-0.2-1.2-0.7-1.6c-0.5-0.4-1.1-0.6-1.9-0.6c-0.6,0-1.2,0.1-1.8,0.3c-0.6,0.2-1.2,0.5-1.9,0.9l-0.8-1.1
			c0.6-0.5,1.3-0.8,2-1.1s1.6-0.4,2.4-0.4c1.4,0,2.5,0.3,3.2,1S436.5,400.4,436.5,401.5z"/>
		<path fill="#FFFFFF" d="M448.6,405.3c0,2.5-0.4,4.3-1.2,5.5c-0.8,1.2-2,1.8-3.6,1.8c-1.5,0-2.7-0.6-3.5-1.9
			c-0.8-1.2-1.2-3.1-1.2-5.5c0-2.5,0.4-4.3,1.2-5.5c0.8-1.2,2-1.8,3.5-1.8c1.5,0,2.7,0.6,3.5,1.9
			C448.2,401.1,448.6,402.9,448.6,405.3z M440.8,405.3c0,2.1,0.2,3.6,0.7,4.5s1.3,1.4,2.3,1.4c1.1,0,1.9-0.5,2.3-1.4
			c0.5-1,0.7-2.5,0.7-4.5s-0.2-3.6-0.7-4.5c-0.5-1-1.3-1.4-2.3-1.4c-1.1,0-1.8,0.5-2.3,1.4C441,401.7,440.8,403.2,440.8,405.3z"/>
	</g>
	<g>
		<path fill="#990000" d="M51.6,468.6H50v-10.2c0-0.8,0-1.6,0.1-2.4c-0.1,0.1-0.3,0.3-0.5,0.4c-0.2,0.1-0.9,0.8-2.3,1.9l-0.9-1.1
			l3.8-2.9h1.4V468.6z"/>
	</g>
	<g>
		<path fill="#990000" d="M126,468.6h-9.4v-1.4l3.8-3.8c1.1-1.2,1.9-2,2.3-2.5c0.4-0.5,0.6-1,0.8-1.4s0.3-1,0.3-1.5
			c0-0.8-0.2-1.4-0.7-1.8c-0.5-0.4-1.1-0.7-1.9-0.7c-0.6,0-1.2,0.1-1.7,0.3s-1.1,0.6-1.8,1.1l-0.9-1.1c1.3-1.1,2.7-1.6,4.3-1.6
			c1.3,0,2.4,0.3,3.2,1c0.8,0.7,1.1,1.6,1.1,2.8c0,0.9-0.3,1.8-0.8,2.7c-0.5,0.9-1.5,2-2.9,3.4l-3.1,3.1v0.1h7.3V468.6z"/>
	</g>
	<g>
		<path fill="#990000" d="M194,457.7c0,0.9-0.3,1.7-0.8,2.2c-0.5,0.6-1.2,1-2.2,1.2v0.1c1.1,0.1,2,0.5,2.5,1.1s0.8,1.4,0.8,2.3
			c0,1.4-0.5,2.4-1.4,3.1s-2.3,1.1-4,1.1c-0.8,0-1.4-0.1-2.1-0.2c-0.6-0.1-1.2-0.3-1.8-0.6v-1.5c0.6,0.3,1.3,0.5,2,0.7
			c0.7,0.2,1.4,0.2,2,0.2c2.5,0,3.7-1,3.7-2.9c0-1.7-1.4-2.6-4.1-2.6h-1.4v-1.4h1.4c1.1,0,2-0.2,2.6-0.7c0.7-0.5,1-1.2,1-2
			c0-0.7-0.2-1.2-0.7-1.6c-0.5-0.4-1.1-0.6-1.9-0.6c-0.6,0-1.2,0.1-1.8,0.3c-0.6,0.2-1.2,0.5-1.9,0.9l-0.8-1.1
			c0.6-0.5,1.3-0.8,2-1.1s1.6-0.4,2.4-0.4c1.4,0,2.5,0.3,3.2,1S194,456.6,194,457.7z"/>
	</g>
	<g>
		<path fill="#990000" d="M262.3,465.3h-2.1v3.3h-1.6v-3.3h-6.9v-1.4l6.8-9.7h1.7v9.6h2.1V465.3z M258.6,463.9v-4.7
			c0-0.9,0-2,0.1-3.2h-0.1c-0.3,0.6-0.6,1.1-0.9,1.6l-4.5,6.3H258.6z"/>
	</g>
	<g>
		<path fill="#990000" d="M319.1,459.9c1.5,0,2.7,0.4,3.5,1.1c0.9,0.7,1.3,1.8,1.3,3.1c0,1.5-0.5,2.6-1.4,3.5s-2.2,1.3-3.9,1.3
			c-1.6,0-2.8-0.3-3.7-0.8v-1.6c0.5,0.3,1,0.5,1.7,0.7s1.3,0.2,2,0.2c1.1,0,2-0.3,2.7-0.8c0.6-0.5,1-1.3,1-2.3c0-2-1.2-3-3.7-3
			c-0.6,0-1.4,0.1-2.5,0.3l-0.8-0.5l0.5-6.7h7.1v1.5h-5.7l-0.4,4.3C317.6,460,318.4,459.9,319.1,459.9z"/>
	</g>
	<g>
		<path fill="#990000" d="M374.8,462.5c0-2.8,0.5-4.9,1.6-6.3c1.1-1.4,2.7-2.1,4.8-2.1c0.7,0,1.3,0.1,1.7,0.2v1.4
			c-0.5-0.2-1.1-0.2-1.7-0.2c-1.5,0-2.7,0.5-3.5,1.4c-0.8,1-1.3,2.5-1.3,4.5h0.1c0.7-1.1,1.8-1.7,3.4-1.7c1.3,0,2.3,0.4,3,1.2
			c0.7,0.8,1.1,1.8,1.1,3.2c0,1.5-0.4,2.7-1.2,3.5s-1.9,1.3-3.3,1.3c-1.5,0-2.6-0.6-3.5-1.7C375.2,466,374.8,464.5,374.8,462.5z
			 M379.6,467.4c0.9,0,1.6-0.3,2.2-0.9c0.5-0.6,0.8-1.4,0.8-2.5c0-0.9-0.2-1.7-0.7-2.2c-0.5-0.5-1.2-0.8-2.1-0.8
			c-0.6,0-1.1,0.1-1.6,0.4c-0.5,0.2-0.9,0.6-1.2,1c-0.3,0.4-0.4,0.9-0.4,1.3c0,0.7,0.1,1.3,0.4,1.9c0.3,0.6,0.6,1,1.1,1.4
			C378.4,467.3,379,467.4,379.6,467.4z"/>
	</g>
	<g>
		<path fill="#990000" d="M435.2,468.6l5.9-12.8h-7.8v-1.5h9.5v1.3l-5.8,13H435.2z"/>
	</g>
	<circle fill="none" stroke="#FFFFFF" stroke-width="2" stroke-miterlimit="10" cx="48" cy="47.7" r="24"/>
	<circle fill="none" stroke="#FFFFFF" stroke-width="2" stroke-miterlimit="10" cx="452" cy="47.7" r="24"/>
	<g>
		<path fill="#FFFFFF" d="M208.5,53.9l-1.8-4.5H201l-1.8,4.5h-1.7l5.6-14.3h1.4l5.6,14.3H208.5z M206.2,47.9l-1.7-4.4
			c-0.2-0.6-0.4-1.2-0.7-2.1c-0.1,0.6-0.3,1.3-0.6,2.1l-1.7,4.4H206.2z"/>
		<path fill="#FFFFFF" d="M212.2,39.6h4c1.9,0,3.3,0.3,4.1,0.8s1.3,1.5,1.3,2.7c0,0.8-0.2,1.5-0.7,2.1s-1.2,0.9-2.1,1.1v0.1
			c2.2,0.4,3.3,1.5,3.3,3.4c0,1.3-0.4,2.3-1.3,3s-2.1,1.1-3.6,1.1h-5V39.6z M213.8,45.8h2.7c1.2,0,2-0.2,2.5-0.6s0.8-1,0.8-1.9
			c0-0.8-0.3-1.4-0.9-1.7s-1.5-0.5-2.7-0.5h-2.4V45.8z M213.8,47.2v5.3h3c1.2,0,2-0.2,2.6-0.7s0.9-1.1,0.9-2.1c0-0.9-0.3-1.5-0.9-2
			s-1.5-0.6-2.7-0.6H213.8z"/>
		<path fill="#FFFFFF" d="M226.8,48v5.9h-1.7V39.6h3.9c1.8,0,3,0.3,3.9,1s1.3,1.7,1.3,3c0,1.9-1,3.2-2.9,3.8l3.9,6.4h-2l-3.5-5.9
			H226.8z M226.8,46.6h2.3c1.2,0,2-0.2,2.6-0.7s0.8-1.2,0.8-2.1c0-0.9-0.3-1.6-0.8-2s-1.5-0.6-2.7-0.6h-2.2V46.6z"/>
		<path fill="#FFFFFF" d="M237.5,53.9V39.6h1.7v14.3H237.5z"/>
		<path fill="#FFFFFF" d="M243.1,53.9V39.6h1.7v12.8h6.3v1.5H243.1z"/>
		<path fill="#FFFFFF" d="M267.1,53.9h-9.4v-1.4l3.8-3.8c1.1-1.2,1.9-2,2.3-2.5s0.6-1,0.8-1.4s0.3-1,0.3-1.5c0-0.8-0.2-1.4-0.7-1.8
			s-1.1-0.7-1.9-0.7c-0.6,0-1.2,0.1-1.7,0.3s-1.1,0.6-1.8,1.1l-0.9-1.1c1.3-1.1,2.7-1.6,4.3-1.6c1.3,0,2.4,0.3,3.2,1
			s1.1,1.6,1.1,2.8c0,0.9-0.3,1.8-0.8,2.7s-1.5,2-2.9,3.4l-3.1,3.1v0.1h7.3V53.9z"/>
		<path fill="#FFFFFF" d="M278.6,46.8c0,2.5-0.4,4.3-1.2,5.5s-2,1.8-3.6,1.8c-1.5,0-2.7-0.6-3.5-1.9s-1.2-3.1-1.2-5.5
			c0-2.5,0.4-4.3,1.2-5.5s2-1.8,3.5-1.8c1.5,0,2.7,0.6,3.5,1.9S278.6,44.4,278.6,46.8z M270.8,46.8c0,2.1,0.2,3.6,0.7,4.5
			s1.3,1.4,2.3,1.4c1.1,0,1.9-0.5,2.3-1.4s0.7-2.5,0.7-4.5s-0.2-3.6-0.7-4.5s-1.3-1.4-2.3-1.4c-1.1,0-1.8,0.5-2.3,1.4
			S270.8,44.7,270.8,46.8z"/>
		<path fill="#FFFFFF" d="M286.5,53.9H285V43.8c0-0.8,0-1.6,0.1-2.4c-0.1,0.1-0.3,0.3-0.5,0.4s-0.9,0.8-2.3,1.9l-0.9-1.1l3.8-2.9
			h1.4V53.9z"/>
		<path fill="#FFFFFF" d="M292.1,47.8c0-2.8,0.5-4.9,1.6-6.3c1.1-1.4,2.7-2.1,4.8-2.1c0.7,0,1.3,0.1,1.7,0.2V41
			c-0.5-0.2-1.1-0.2-1.7-0.2c-1.5,0-2.7,0.5-3.5,1.4c-0.8,1-1.3,2.5-1.3,4.5h0.1c0.7-1.1,1.8-1.7,3.4-1.7c1.3,0,2.3,0.4,3,1.2
			c0.7,0.8,1.1,1.8,1.1,3.2c0,1.5-0.4,2.7-1.2,3.5s-1.9,1.3-3.3,1.3c-1.5,0-2.6-0.6-3.5-1.7C292.6,51.3,292.1,49.8,292.1,47.8z
			 M296.9,52.7c0.9,0,1.6-0.3,2.2-0.9c0.5-0.6,0.8-1.4,0.8-2.5c0-0.9-0.2-1.7-0.7-2.2c-0.5-0.5-1.2-0.8-2.1-0.8
			c-0.6,0-1.1,0.1-1.6,0.4s-0.9,0.6-1.2,1c-0.3,0.4-0.4,0.9-0.4,1.3c0,0.7,0.1,1.3,0.4,1.9c0.3,0.6,0.6,1,1.1,1.4
			S296.3,52.7,296.9,52.7z"/>
	</g>
	<polyline fill="none" stroke="#FFFFFF" stroke-width="3" stroke-miterlimit="10" points="53.4,57.8 43.3,47.7 53.4,37.7 	"/>
	<polyline fill="none" stroke="#FFFFFF" stroke-width="3" stroke-miterlimit="10" points="446.6,37.7 456.6,47.7 446.6,57.8 	"/>
</g>
</svg>
