<?xml version="1.0" encoding="UTF-8" standalone="no"?>
<svg width="26px" height="26px" viewBox="0 0 26 26" version="1.1" xmlns="http://www.w3.org/2000/svg" xmlns:xlink="http://www.w3.org/1999/xlink">
    <!-- Generator: Sketch 3.7 (28169) - http://www.bohemiancoding.com/sketch -->
    <title>Fill 1</title>
    <desc>Created with Sketch.</desc>
    <defs></defs>
    <g id="HOME" stroke="none" stroke-width="1" fill="none" fill-rule="evenodd">
        <g transform="translate(-1258.000000, -1672.000000)" id="Group-36" fill="#DB4C92">
            <g transform="translate(935.000000, 1170.000000)">
                <g id="Group-27" transform="translate(70.000000, 490.000000)">
                    <path d="M266.803196,24.8719689 L266.803196,17.5042736 C266.803196,17.063391 266.419271,16.7077775 265.978588,16.7077775 C265.566454,16.7077775 265.196761,17.063391 265.196761,17.5042736 L265.196761,24.9857176 C265.196761,25 265.225268,25.0570444 265.225268,25.0995514 C265.196761,25.3556135 265.268049,25.5689562 265.438493,25.7397918 L269.689111,29.9924468 C269.973539,30.2770312 270.499402,30.2770312 270.783618,29.9924468 C271.110487,29.6653555 271.08899,29.1907649 270.783618,28.8830567 L266.803196,24.8719689 Z M275.886967,30.7321961 C274.866467,32.4832719 273.468415,33.872443 271.707637,34.8995396 C269.957523,35.9206002 268.039938,36.43553 265.978928,36.43553 C264.429549,36.43553 262.951118,36.1369608 261.543634,35.5252426 C260.136193,34.913822 258.92099,34.1100146 257.904441,33.0932048 C256.887892,32.0760973 256.078791,30.8483677 255.473781,29.4377305 C254.870556,28.0322367 254.578225,26.5362879 254.578225,24.9857602 C254.578225,22.9233206 255.084673,21.0144164 256.099438,19.2681865 C257.117814,17.5155804 258.516163,16.1249215 260.264493,15.1008004 C262.012526,14.0767219 263.917663,13.5645125 265.978631,13.5645125 C268.039938,13.5645125 269.957183,14.0797399 271.70734,15.1008004 C273.468118,16.1279395 274.863154,17.5185559 275.88667,19.2681439 C276.910186,21.0174344 277.421817,22.9233206 277.421817,24.9857176 C277.421817,27.0481997 276.913542,28.970111 275.886967,30.7321961 M277.962209,19.936609 C276.591431,16.7390201 274.262052,14.4135048 271.039539,13.0383609 C269.428899,12.3510653 267.74149,12 265.978631,12 C264.216069,12 262.541108,12.3477497 260.932252,13.0383609 C257.736418,14.4098492 255.396716,16.7338768 254.023516,19.936609 C253.335408,21.5411631 253,23.2221873 253,24.9857176 C253,26.749588 253.335408,28.4445545 254.023516,30.0494487 C255.396716,33.2521809 257.736716,35.5901508 260.932252,36.9619791 C262.541405,37.6525903 264.216026,38 265.978631,38 C267.741235,38 269.428899,37.6489347 271.039284,36.9619791 C274.261797,35.5867927 276.591176,33.24674 277.962252,30.0494487 C278.652441,28.4394112 279,26.749588 279,24.9857176 C279,23.2221873 278.652739,21.546604 277.962209,19.936609" id="Fill-1"></path>
                </g>
            </g>
        </g>
    </g>
</svg>