<?xml version="1.0" encoding="UTF-8" standalone="no"?>
<svg width="26px" height="26px" viewBox="0 0 26 26" version="1.1" xmlns="http://www.w3.org/2000/svg" xmlns:xlink="http://www.w3.org/1999/xlink">
    <!-- Generator: Sketch 3.7 (28169) - http://www.bohemiancoding.com/sketch -->
    <title>proyectis</title>
    <desc>Created with Sketch.</desc>
    <defs></defs>
    <g id="HOME" stroke="none" stroke-width="1" fill="none" fill-rule="evenodd">
        <g transform="translate(-1258.000000, -1732.000000)" id="Group-36" fill="#DB4C92">
            <g transform="translate(935.000000, 1170.000000)">
                <g id="Group-28" transform="translate(70.000000, 550.000000)">
                    <path d="M268.363385,27.3633848 L254.772954,27.3633848 L254.772954,14.3633848 L268.363385,14.3633848 L268.363385,19.3330779 L269.545907,19.5854084 L269.545907,14.1995914 C269.898395,13.9948495 270.136338,13.6180139 270.136338,13.1819691 C270.136338,12.529562 269.60733,12 268.954369,12 L254.181969,12 C253.529009,12 253,12.529562 253,13.1819691 C253,13.6185672 253.23905,13.9948495 253.590985,14.1995914 L253.590985,27.9543694 C253.590985,28.2802963 253.855489,28.5453539 254.181416,28.5453539 L257.823054,28.5453539 L255.698165,36.5125782 C255.530498,37.1428511 255.905121,37.7913847 256.535947,37.959605 C256.638318,37.9867194 256.740689,38 256.8414,38 C257.363215,38 257.841868,37.6508322 257.982974,37.1223769 L260.270549,28.5453539 L262.86579,28.5453539 L265.153365,37.1223769 C265.294471,37.6508322 265.772017,38 266.294386,38 C266.39565,38 266.497467,37.9872728 266.600392,37.959605 C267.231218,37.7913847 267.605287,37.1428511 267.438173,36.5131316 L265.313285,28.5459073 L268.954923,28.5459073 C269.281403,28.5459073 269.545354,28.2808496 269.545354,27.9549227 L269.545354,24.4206359 L268.362831,24.1677521 L268.362831,27.3633848 L268.363385,27.3633848 Z M260.977185,18.6469161 L260.977185,25.4432384 C260.977185,25.770272 261.241689,26.034223 261.567616,26.034223 C261.894649,26.034223 262.1586,25.7697186 262.1586,25.4432384 L262.1586,18.6469161 C262.1586,18.3204359 261.894096,18.0559316 261.567616,18.0559316 C261.241689,18.0559316 260.977185,18.3204359 260.977185,18.6469161 Z M258.317754,16.2840846 L258.317754,25.4432384 C258.317754,25.770272 258.582259,26.034223 258.908739,26.034223 C259.235219,26.034223 259.49917,25.7697186 259.49917,25.4432384 L259.49917,16.2840846 C259.49917,15.9576044 259.234666,15.6931001 258.908739,15.6931001 C258.582259,15.6931001 258.317754,15.9576044 258.317754,16.2840846 Z M255.65943,20.4209765 L255.65943,25.4437918 C255.65943,25.770272 255.923935,26.0347763 256.249862,26.0347763 C256.576895,26.0347763 256.840846,25.7697186 256.840846,25.4437918 L256.840846,20.4209765 C256.840846,20.0950496 256.576342,19.8299919 256.249862,19.8299919 C255.923381,19.8299919 255.65943,20.0944962 255.65943,20.4209765 Z M278.92751,27.5316052 L276.757247,21.9139318 C276.58294,21.4585196 276.144128,21.1580471 275.656068,21.1580471 L274.502873,21.1580471 C274.178606,21.1580471 273.895288,21.2997063 273.683906,21.5127485 L274.233942,25.5516962 L273.390074,26.267186 L272.547312,25.5516962 L273.097348,21.5127485 C272.884306,21.2997063 272.601541,21.1580471 272.277274,21.1580471 L271.249691,21.1580471 L264.474397,19.7104669 C263.836377,19.5743413 263.208317,19.9816115 263.071638,20.6196314 C262.935513,21.2582046 263.34223,21.886264 263.980803,22.0223896 L270.877283,23.4954242 C270.948666,23.5109181 271.022262,23.5192185 271.095305,23.5208786 L271.095305,28.9874856 L270.643213,36.748308 C270.606691,37.3996084 271.103052,37.9584983 271.755459,37.9966799 C271.778147,37.9983399 271.801941,37.9988933 271.824629,37.9988933 C272.446048,37.9988933 272.966203,37.5141532 273.003831,36.8855404 L273.391734,30.2292172 L273.779083,36.8855404 C273.815605,37.5141532 274.33742,37.9988933 274.958839,37.9988933 C274.981526,37.9988933 275.005321,37.9983399 275.028008,37.9966799 C275.679862,37.9584983 276.176776,37.3996084 276.139148,36.748308 L275.687609,28.9874856 L275.687609,25.6961222 L276.725706,28.3832205 C276.960882,28.9930192 277.64649,29.294045 278.254629,29.0599753 C278.860554,28.8247989 279.16324,28.1408505 278.92751,27.5316052 Z M273.390074,20.5731494 C274.547695,20.5731494 275.488954,19.6335504 275.488954,18.4753756 C275.488954,17.3160942 274.547695,16.3770485 273.390074,16.3770485 C272.233006,16.3770485 271.2923,17.3155408 271.2923,18.4753756 C271.2923,19.6335504 272.233006,20.5731494 273.390074,20.5731494 Z" id="proyectis"></path>
                </g>
            </g>
        </g>
    </g>
</svg>