<?xml version="1.0" encoding="UTF-8" standalone="no"?>
<svg width="18px" height="26px" viewBox="0 0 18 26" version="1.1" xmlns="http://www.w3.org/2000/svg" xmlns:xlink="http://www.w3.org/1999/xlink">
    <!-- Generator: Sketch 3.7 (28169) - http://www.bohemiancoding.com/sketch -->
    <title>reglamento</title>
    <desc>Created with Sketch.</desc>
    <defs></defs>
    <g id="HOME" stroke="none" stroke-width="1" fill="none" fill-rule="evenodd">
        <g transform="translate(-1263.000000, -1852.000000)" id="Group-36" fill="#DB4C92">
            <g transform="translate(935.000000, 1170.000000)">
                <g id="Group-30" transform="translate(70.000000, 670.000000)">
                    <path d="M258.717087,12 C258.321135,12 258,12.3211353 258,12.7170866 L258,37.2829134 C258,37.5580356 258.157401,37.8090159 258.405273,37.9286499 C258.50447,37.9765752 258.610958,38 258.716967,38 C258.875921,38 259.03368,37.9471746 259.162875,37.8445117 L266.989996,31.630717 C267.300255,31.3843977 267.352005,30.9334698 267.105805,30.6232103 C266.859605,30.3130703 266.408558,30.2613206 266.098298,30.5074008 L259.434054,35.7979465 L259.434054,13.4341733 L273.656272,13.4341733 L273.656272,35.798305 L270.456751,33.2589817 C270.14673,33.012782 269.695563,33.0647708 269.449244,33.3749107 C269.203044,33.6851702 269.255033,34.1362177 269.565293,34.3824174 L273.927689,37.8446312 C274.142935,38.0155369 274.437538,38.0482838 274.685291,37.9286499 C274.933045,37.8090159 275.090565,37.5580356 275.090565,37.2829134 L275.090565,12.7170866 C275.090565,12.3211353 274.769549,12 274.373478,12 L258.717087,12 Z M268.696542,20.4930546 L261.22689,20.4930546 C260.830939,20.4930546 260.509803,20.8141899 260.509803,21.2101412 C260.509803,21.6060925 260.830939,21.9272278 261.22689,21.9272278 L268.696542,21.9272278 C269.092494,21.9272278 269.413629,21.6060925 269.413629,21.2101412 C269.413629,20.8141899 269.092613,20.4930546 268.696542,20.4930546 Z M261.22689,19.1002333 L271.863675,19.1002333 C272.259626,19.1002333 272.580762,18.779098 272.580762,18.3831467 C272.580762,17.9871953 272.259626,17.66606 271.863675,17.66606 L261.22689,17.66606 C260.830939,17.66606 260.509803,17.9871953 260.509803,18.3831467 C260.509803,18.779098 260.830939,19.1002333 261.22689,19.1002333 Z M261.22689,16.2732388 L271.863675,16.2732388 C272.259626,16.2732388 272.580762,15.9521035 272.580762,15.5561521 C272.580762,15.1602008 272.259626,14.8390655 271.863675,14.8390655 L261.22689,14.8390655 C260.830939,14.8390655 260.509803,15.1602008 260.509803,15.5561521 C260.509803,15.9521035 260.830939,16.2732388 261.22689,16.2732388 Z" id="reglamento"></path>
                </g>
            </g>
        </g>
    </g>
</svg>