<?xml version="1.0" encoding="UTF-8" standalone="no"?>
<svg width="28px" height="26px" viewBox="0 0 28 26" version="1.1" xmlns="http://www.w3.org/2000/svg" xmlns:xlink="http://www.w3.org/1999/xlink">
    <!-- Generator: Sketch 3.7 (28169) - http://www.bohemiancoding.com/sketch -->
    <title>resultados</title>
    <desc>Created with Sketch.</desc>
    <defs></defs>
    <g id="HOME" stroke="none" stroke-width="1" fill="none" fill-rule="evenodd">
        <g transform="translate(-1257.000000, -1792.000000)" id="Group-36" fill="#DB4C92">
            <g transform="translate(935.000000, 1170.000000)">
                <g id="Group-29" transform="translate(70.000000, 610.000000)">
                    <path d="M252,38 L260.178572,38 L260.178572,27.0999191 L252,27.0999191 L252,38 Z M255.946857,18.7602691 L257.105047,21.0934033 L259.699133,21.4691006 L257.825388,23.2828324 L258.266813,25.845611 L255.946857,24.6360743 L253.626901,25.8468122 L254.069536,23.2840336 L252.194636,21.4702472 L254.787512,21.0945499 L255.946857,18.7602691 Z M265.871066,12 L264.711665,14.3331343 L262.11879,14.707685 L263.993745,16.5237645 L263.552265,19.085342 L265.872276,17.8758598 L268.192232,19.085342 L267.749597,16.5237645 L269.624552,14.707685 L267.030411,14.3331343 L265.871066,12 Z M275.626681,16.0408453 L276.784871,18.3727783 L279.378957,18.7472744 L277.504002,20.5622074 L277.945427,23.1261872 L275.626681,21.9154493 L273.307935,23.1261872 L273.74936,20.5622074 L271.874405,18.7472744 L274.466126,18.3727237 L275.626681,16.0408453 Z M261.736652,38 L269.917645,38 L269.917645,20.2348304 L261.736652,20.2348304 L261.736652,38 Z M271.474515,37.9999454 L279.653142,37.9999454 L279.653142,24.2991425 L271.474515,24.2991425 L271.474515,37.9999454 Z" id="resultados"></path>
                </g>
            </g>
        </g>
    </g>
</svg>