<?xml version="1.0" encoding="UTF-8" standalone="no"?>
<svg width="26px" height="26px" viewBox="0 0 26 26" version="1.1" xmlns="http://www.w3.org/2000/svg" xmlns:xlink="http://www.w3.org/1999/xlink">
    <!-- Generator: Sketch 3.7 (28169) - http://www.bohemiancoding.com/sketch -->
    <title>Page 1</title>
    <desc>Created with Sketch.</desc>
    <defs></defs>
    <g id="HOME" stroke="none" stroke-width="1" fill="none" fill-rule="evenodd">
        <g transform="translate(-1259.000000, -1323.000000)" id="Group-36" fill="#DB4C92">
            <g transform="translate(935.000000, 1170.000000)">
                <g id="Group-2-Copy" transform="translate(70.000000, 141.000000)">
                    <g id="Group-25">
                        <path d="M272.6875,28.25 C272.238187,28.25 271.875,28.6131875 271.875,29.0625 C271.875,29.5118125 272.238187,29.875 272.6875,29.875 C275.822938,29.875 278.375,32.4270625 278.375,35.5625 C278.375,36.0101875 278.010188,36.375 277.5625,36.375 L256.4375,36.375 C255.989812,36.375 255.625,36.0101875 255.625,35.5625 C255.625,32.4270625 258.177062,29.875 261.3125,29.875 C261.761813,29.875 262.125,29.5118125 262.125,29.0625 C262.125,28.6131875 261.761813,28.25 261.3125,28.25 C257.280062,28.25 254,31.5300625 254,35.5625 C254,36.906375 255.093625,38 256.4375,38 L277.5625,38 C278.906375,38 280,36.906375 280,35.5625 C280,31.530875 276.719938,28.25 272.6875,28.25 M267,13.6258125 C270.135438,13.6258125 272.6875,16.905875 272.6875,20.9383125 C272.6875,24.9699375 270.135438,28.2508125 267,28.2508125 C263.864563,28.2508125 261.3125,24.9699375 261.311688,20.9383125 C261.311688,16.905875 263.86375,13.6258125 267,13.6258125 M267,29.875 C271.032438,29.875 274.3125,25.8645 274.3125,20.9375 C274.3125,16.0105 271.031625,12 267,12 C265.011813,12 263.153625,12.953875 261.769125,14.6853125 C260.426063,16.363125 259.6875,18.5845 259.6875,20.9383125 C259.6875,25.8645 262.967562,29.875 267,29.875" id="Page-1"></path>
                    </g>
                </g>
            </g>
        </g>
    </g>
</svg>